<?xml version="1.0" encoding="utf-8"?>
<!-- Generator: Adobe Illustrator 28.1.0, SVG Export Plug-In . SVG Version: 6.00 Build 0)  -->
<svg version="1.1" id="Layer_1" xmlns="http://www.w3.org/2000/svg" xmlns:xlink="http://www.w3.org/1999/xlink" x="0px" y="0px"
	 viewBox="0 0 46 47" style="enable-background:new 0 0 46 47;" xml:space="preserve">
<style type="text/css">
	.st0{fill:#495E57;}
</style>
<path class="st0" d="M39.7,28.5v6.6H46v4.4h-6.3V46h-4.2v-6.6h-6.3v-4.4h6.3v-6.6H39.7z M23,24.2c-2.3,0-4.2,2-4.2,4.4
	s1.9,4.4,4.2,4.4s4.2-2,4.2-4.4S25.3,24.2,23,24.2z M25.8,41.7H9.4c-1.9,0-3.5-1.4-4-3.2L0.1,18.2C0,18,0,17.8,0,17.6
	c0-1.2,0.9-2.2,2.1-2.2h10l9.2-14.3c0.4-0.6,1.1-1,1.7-1s1.3,0.3,1.7,1l9.2,14.3h10c1.2,0,2.1,1,2.1,2.2l-0.1,0.6l-2,7.7
	c-1.2-0.7-2.5-1.2-3.9-1.5l1.2-4.6H4.8l4.6,17.5h15.7C25.1,38.8,25.4,40.3,25.8,41.7z M17.1,15.4h11.7L23,6.2L17.1,15.4z"/>
</svg>
