<?xml version="1.0" encoding="utf-8"?>
<!-- Generator: Adobe Illustrator 28.1.0, SVG Export Plug-In . SVG Version: 6.00 Build 0)  -->
<svg version="1.1" id="Layer_1" xmlns="http://www.w3.org/2000/svg" xmlns:xlink="http://www.w3.org/1999/xlink" x="0px" y="0px"
	 viewBox="0 0 29 20" style="enable-background:new 0 0 29 20;" xml:space="preserve">
<style type="text/css">
	.st0{fill:#495E57;}
</style>
<path class="st0" d="M24.1,17.1H0.4V20h28v-2.9H24.1z M27,15.7C26.6,9.9,22.4,5.1,17,4c0.1-0.3,0.2-0.7,0.2-1.1
	c0-1.6-1.3-2.9-2.8-2.9s-2.8,1.3-2.8,2.9c0,0.4,0.1,0.8,0.2,1.1c-5.5,1.2-9.6,5.9-10,11.7H27z M14.4,6.5c4.1,0,7.7,2.6,9.1,6.3H5.3
	C6.7,9.2,10.2,6.5,14.4,6.5z"/>
</svg>
