<?xml version="1.0" encoding="utf-8"?>
<!-- Generator: Adobe Illustrator 28.1.0, SVG Export Plug-In . SVG Version: 6.00 Build 0)  -->
<svg version="1.1" id="Layer_1" xmlns="http://www.w3.org/2000/svg" xmlns:xlink="http://www.w3.org/1999/xlink" x="0px" y="0px"
	 viewBox="0 0 35 25" style="enable-background:new 0 0 35 25;" xml:space="preserve">
<style type="text/css">
	.st0{fill-rule:evenodd;clip-rule:evenodd;}
</style>
<path class="st0" d="M1.3,0C0.6,0,0,0.6,0,1.4c0,0.8,0.6,1.4,1.3,1.4h32.3c0.7,0,1.3-0.6,1.3-1.4C35,0.6,34.4,0,33.7,0H1.3z M0,12.5
	c0-0.8,0.6-1.4,1.3-1.4h32.3c0.7,0,1.3,0.6,1.3,1.4s-0.6,1.4-1.3,1.4H1.3C0.6,13.9,0,13.3,0,12.5z M0,23.6c0-0.8,0.6-1.4,1.3-1.4
	h32.3c0.7,0,1.3,0.6,1.3,1.4c0,0.8-0.6,1.4-1.3,1.4H1.3C0.6,25,0,24.4,0,23.6z"/>
</svg>
