<?xml version="1.0" encoding="utf-8"?>
<!-- Generator: Adobe Illustrator 28.1.0, SVG Export Plug-In . SVG Version: 6.00 Build 0)  -->
<svg version="1.1" id="Layer_1" xmlns="http://www.w3.org/2000/svg" xmlns:xlink="http://www.w3.org/1999/xlink" x="0px" y="0px"
	 viewBox="0 0 45 30" style="enable-background:new 0 0 45 30;" xml:space="preserve">
<path d="M44.1,14.2c-0.1-0.1-1.6-3.6-5.1-7.1C35.8,3.8,30.2,0,22.1,0C14,0,8.4,3.8,5.2,7.1c-3.5,3.5-5,6.9-5.1,7.1
	C0,14.3,0,14.5,0,14.6c0,0.2,0,0.3,0.1,0.5c0.1,0.1,1.6,3.6,5.1,7.1c3.2,3.2,8.8,7.1,16.9,7.1c8.1,0,13.7-3.8,16.9-7.1
	c3.5-3.5,5-6.9,5.1-7.1c0.1-0.1,0.1-0.3,0.1-0.5S44.2,14.3,44.1,14.2z M22.1,27c-5.9,0-11-2.1-15.3-6.4c-1.8-1.8-3.3-3.8-4.5-6
	c1.2-2.2,2.7-4.2,4.5-6c4.2-4.2,9.4-6.4,15.3-6.4c5.9,0,11,2.1,15.3,6.4c1.8,1.8,3.3,3.8,4.5,6C40.6,16.9,34.7,27,22.1,27z M22.1,6
	c-1.7,0-3.4,0.5-4.8,1.5c-1.4,0.9-2.5,2.3-3.2,3.9c-0.7,1.6-0.8,3.3-0.5,5c0.3,1.7,1.2,3.2,2.4,4.4c1.2,1.2,2.7,2,4.4,2.4
	c1.7,0.3,3.4,0.2,5-0.5c1.6-0.7,2.9-1.8,3.9-3.2c0.9-1.4,1.5-3.1,1.5-4.8c0-2.3-0.9-4.5-2.5-6.1C26.6,6.9,24.4,6,22.1,6z M22.1,21
	c-1.3,0-2.5-0.4-3.5-1.1c-1-0.7-1.9-1.7-2.3-2.9c-0.5-1.2-0.6-2.4-0.4-3.7s0.9-2.4,1.7-3.3c0.9-0.9,2-1.5,3.3-1.7
	c1.2-0.2,2.5-0.1,3.7,0.4c1.2,0.5,2.2,1.3,2.9,2.3s1.1,2.3,1.1,3.5c0,1.7-0.7,3.3-1.9,4.5C25.4,20.3,23.8,21,22.1,21z"/>
</svg>
